<?xml version="1.0" standalone="no"?>
<!DOCTYPE svg PUBLIC "-//W3C//DTD SVG 20010904//EN"
 "http://www.w3.org/TR/2001/REC-SVG-20010904/DTD/svg10.dtd">
<svg version="1.0" xmlns="http://www.w3.org/2000/svg"
 width="262.000000pt" height="262.000000pt" viewBox="0 0 262.000000 262.000000"
 preserveAspectRatio="xMidYMid meet">
<metadata>
Created by potrace 1.14, written by Peter Selinger 2001-2017
</metadata>
<g transform="translate(0.000000,262.000000) scale(0.100000,-0.100000)"
fill="#000000" stroke="none">
<path d="M1131 2609 c-65 -12 -641 -207 -676 -229 -65 -40 -124 -121 -146
-200 -13 -49 -13 -68 -24 -875 -13 -975 -13 -903 7 -978 52 -193 214 -322 403
-321 67 1 102 8 220 47 184 60 384 124 635 203 113 36 282 89 375 119 158 50
229 84 280 131 45 42 86 106 111 171 22 58 27 87 29 203 6 241 7 1044 1 1069
-43 182 -174 299 -345 309 -82 4 -53 13 -396 -112 -38 -15 -70 -26 -71 -26 -1
0 -1 46 -1 103 0 118 -16 179 -67 251 -77 108 -203 159 -335 135z m124 -253
c40 -27 57 -72 58 -153 0 -41 -4 -78 -9 -82 -5 -5 -139 -57 -298 -117 -195
-72 -303 -107 -331 -107 -113 0 -194 130 -143 232 24 49 39 56 291 138 111 36
231 75 267 88 71 26 126 27 165 1z m810 -352 c14 -9 35 -32 47 -53 22 -35 23
-43 21 -276 0 -132 -2 -379 -3 -550 -1 -232 -5 -321 -16 -355 -15 -47 -54 -99
-91 -118 -24 -13 -492 -162 -509 -162 -7 0 -10 32 -8 93 1 50 5 288 9 527 10
665 12 748 19 759 5 7 79 37 116 46 3 1 16 6 30 12 14 5 75 28 135 51 61 22
117 43 125 46 25 9 98 -2 125 -20z m-811 -251 c-2 -93 -15 -1063 -17 -1261
l-1 -93 -250 -81 c-161 -52 -267 -81 -296 -81 -52 0 -98 21 -140 64 -54 57
-58 87 -54 395 8 677 14 997 16 1000 2 1 28 -5 58 -15 104 -34 185 -20 420 72
99 38 254 96 261 97 3 0 5 -44 3 -97z"/>
</g>
</svg>
