<svg width="18" height="18" viewBox="0 0 18 18" fill="none" xmlns="http://www.w3.org/2000/svg">
<path fill-rule="evenodd" clip-rule="evenodd" d="M9.00002 0.666656C13.6025 0.666656 17.3334 4.39749 17.3334 8.99999C17.3334 13.6025 13.6025 17.3333 9.00002 17.3333C4.39752 17.3333 0.666687 13.6025 0.666687 8.99999C0.666687 4.39749 4.39752 0.666656 9.00002 0.666656ZM9.00002 2.33332C7.23191 2.33332 5.53622 3.0357 4.28598 4.28594C3.03573 5.53619 2.33335 7.23188 2.33335 8.99999C2.33335 10.7681 3.03573 12.4638 4.28598 13.714C5.53622 14.9643 7.23191 15.6667 9.00002 15.6667C10.7681 15.6667 12.4638 14.9643 13.7141 13.714C14.9643 12.4638 15.6667 10.7681 15.6667 8.99999C15.6667 7.23188 14.9643 5.53619 13.7141 4.28594C12.4638 3.0357 10.7681 2.33332 9.00002 2.33332ZM9.00002 3.99999C9.20413 4.00002 9.40114 4.07495 9.55366 4.21059C9.70619 4.34622 9.80364 4.53311 9.82752 4.73582L9.83335 4.83332V8.65499L11.2559 10.0775C11.4053 10.2275 11.4921 10.4287 11.4985 10.6403C11.505 10.8519 11.4307 11.0581 11.2906 11.2169C11.1506 11.3757 10.9554 11.4752 10.7446 11.4953C10.5339 11.5154 10.3233 11.4545 10.1559 11.325L10.0775 11.2558L8.41085 9.58916C8.28134 9.45953 8.19816 9.29082 8.17419 9.10916L8.16669 8.99999V4.83332C8.16669 4.61231 8.25449 4.40035 8.41077 4.24407C8.56705 4.08779 8.77901 3.99999 9.00002 3.99999Z" fill="#3D3D3D" fill-opacity="0.8"/>
</svg>
